<?xml version="1.0" encoding="UTF-8"?>
<svg id="Layer_2" data-name="Layer 2" xmlns="http://www.w3.org/2000/svg" viewBox="0 0 85.96 86.04">
  <defs>
    <style>
      .cls-1 {
        fill: #ec2227;
        stroke-width: 0px;
      }
    </style>
  </defs>
  <g id="Layer_1-2" data-name="Layer 1">
    <path class="cls-1" d="M74.67,72.03c7.29-7.96,11.3-18.22,11.3-29.01C85.96,19.3,66.66,0,42.94,0,29.26,0,16.23,6.71,8.08,17.94-1.29,30.87-2.63,48.42,4.68,62.64c1.76,3.42,3.95,6.57,6.53,9.39-.8.42-1.62.8-2.43,1.14l-2.64,1.12,4.01,9.47,2.65-1.11c2.17-.92,4.3-2.08,6.65-3.62l.54.34c6.89,4.36,14.82,6.66,22.96,6.66s16.08-2.3,22.96-6.67l.53-.34c2.34,1.54,4.46,2.7,6.65,3.62l2.65,1.11,4.01-9.47-2.65-1.12c-.82-.35-1.64-.73-2.43-1.15ZM37.79,10.7v7.64h-16.31c4.64-4.05,10.23-6.67,16.31-7.64ZM48.08,18.34v-7.64c6.09.97,11.68,3.59,16.32,7.64h-16.32ZM75.26,48.16c-1.06,6.63-4.2,12.87-8.91,17.7-4.67-4.8-7.78-11.03-8.83-17.7h17.74ZM10.62,37.88c.5-3.21,1.49-5.59,2.93-8.52h58.77c1.44,2.94,2.43,5.32,2.93,8.52H10.62ZM38.74,48.16h8.41c1.06,8.86,4.92,17.27,10.94,23.85-9.3,4.84-20.99,4.84-30.29,0,6.02-6.58,9.88-14.99,10.94-23.85ZM28.36,48.16c-1.05,6.67-4.16,12.9-8.84,17.7-4.71-4.83-7.84-11.07-8.9-17.7h17.74Z"/>
  </g>
</svg>