<?xml version="1.0" encoding="UTF-8"?><svg id="Layer_2" xmlns="http://www.w3.org/2000/svg" viewBox="0 0 108.25 126.04"><g id="Layer_1-2"><path d="M106.93,49.13c-1.52-18.24-12.21-33.92-27.44-42.38-2.18-1.22-4.45-2.29-6.81-3.2-.78-.3-1.58-.59-2.38-.85-5.29-1.75-10.94-2.7-16.81-2.7-7.49,0-14.62,1.54-21.1,4.33-5.91,2.54-11.27,6.11-15.86,10.49-7.07,6.72-12.31,15.36-14.88,25.06h0s0,0,0,0c-.6,2.24-1.05,4.54-1.35,6.89-.1.78-.18,1.57-.25,2.36-.02.22-.04.43-.05.65h0c.7.46,1.4.89,2.12,1.32.72.42,1.45.83,2.19,1.21,1.48.77,3,1.48,4.56,2.1,5.93,2.4,12.41,3.72,19.19,3.72,10.76,0,20.76-3.32,29.03-9,3.46-2.37,6.62-5.16,9.39-8.29h0c.89,2.65,1.5,5.43,1.82,8.29.17,1.48.25,2.98.25,4.5s-.08,3.02-.25,4.5h38.63c.13-1.48.19-2.98.19-4.5s-.06-3.02-.19-4.5ZM53.49,9c5.88,0,11.5,1.14,16.64,3.22h0c-.5,3.87-1.53,7.58-3.01,11.05h0c-4.62-5.93-10.55-10.78-17.36-14.11,1.23-.11,2.47-.16,3.73-.16ZM28.06,49.13c-6.57,0-12.8-1.5-18.35-4.18h0c2.73-13.81,11.85-25.35,24.15-31.39,11.88,1.71,22.12,8.6,28.33,18.31-7.73,10.46-20.15,17.26-34.13,17.26ZM77.34,49.13c-.54-6-2.15-11.69-4.65-16.88,2.73-4.76,4.73-10,5.82-15.56,10.66,7.24,18.03,18.97,19.39,32.44h-20.56Z"/><circle cx="22.35" cy="37.22" r="3.11"/><path d="M108.25,76.26c-2.78-1.82-5.75-3.38-8.87-4.63-5.93-2.4-12.41-3.72-19.19-3.72-10.76,0-20.76,3.32-29.03,9-3.46,2.37-6.62,5.16-9.39,8.29h0c-.89-2.65-1.5-5.43-1.82-8.29-.17-1.48-.25-2.98-.25-4.5s.08-3.02.25-4.5H1.32c-.13,1.48-.19,2.98-.19,4.5s.06,3.02.19,4.5c1.52,18.24,12.21,33.92,27.44,42.38,2.18,1.22,4.45,2.29,6.81,3.2.78.3,1.58.59,2.38.85,5.29,1.75,10.94,2.7,16.81,2.7,7.49,0,14.62-1.54,21.1-4.33,5.91-2.54,11.27-6.11,15.86-10.49,7.07-6.72,12.31-15.36,14.88-25.06h0s0,0,0,0c.2-.75.38-1.5.55-2.26.5-2.28.85-4.61,1.05-6.99.02-.22.04-.43.05-.65h0ZM10.35,76.91h20.56c.54,6,2.15,11.69,4.65,16.88-2.73,4.76-4.73,10-5.82,15.56-10.66-7.24-18.03-18.97-19.39-32.44ZM54.76,117.04c-5.88,0-11.5-1.14-16.64-3.22h0c.5-3.87,1.53-7.58,3.01-11.05h0c4.62,5.93,10.55,10.78,17.36,14.11-1.23.11-2.47.16-3.73.16ZM98.54,81.09c-2.73,13.81-11.85,25.35-24.15,31.39-11.88-1.71-22.12-8.6-28.33-18.31,7.73-10.46,20.15-17.26,34.13-17.26,6.57,0,12.8,1.5,18.35,4.18h0Z"/><circle cx="85.89" cy="88.82" r="3.11"/></g></svg>